<svg width="127" height="128" viewBox="0 0 127 128" fill="none" xmlns="http://www.w3.org/2000/svg">
<path d="M87.4512 47.2513L77.3794 25.7403C76.3109 23.4583 74.3797 21.6941 72.0105 20.836C69.6413 19.9779 67.0283 20.0961 64.7463 21.1646V21.1646C62.4643 22.2331 60.7001 24.1643 59.842 26.5335C58.9839 28.9027 59.1021 31.5157 60.1706 33.7977V33.7977M68.228 51.0065L56.1419 25.1933C55.0734 22.9113 53.1421 21.1472 50.773 20.2891C48.4038 19.4309 45.7908 19.5491 43.5088 20.6176C41.2267 21.6861 39.4626 23.6173 38.6045 25.9865C37.7464 28.3557 37.8646 30.9687 38.9331 33.2507L42.9618 41.8551M52.0264 61.215L42.9618 41.8551C41.8933 39.5731 39.962 37.809 37.5929 36.9509C35.2237 36.0928 32.6107 36.2109 30.3287 37.2794V37.2794C28.0466 38.3479 26.2825 40.2792 25.4244 42.6483C24.5663 45.0175 24.6845 47.6305 25.753 49.9125L41.8678 84.3302" stroke="white" stroke-width="9.50086" stroke-linecap="round" stroke-linejoin="round"/>
<path d="M81.4094 34.3455C80.3409 32.0635 80.2227 29.4505 81.0808 27.0813C81.9389 24.7122 83.703 22.7809 85.9851 21.7124C88.2671 20.644 90.8801 20.5258 93.2493 21.3839C95.6184 22.242 97.5497 24.0061 98.6182 26.2881L110.704 52.1013C114.978 61.2295 115.451 71.6815 112.019 81.1582C108.586 90.6349 101.53 98.3599 92.4015 102.634L83.7971 106.662C71.751 112.303 62.7049 112.027 53.3134 108.661L30.5737 100.425C28.3259 99.4788 26.5281 97.7043 25.5525 95.469C24.577 93.2337 24.4983 90.7089 25.333 88.4173C26.1676 86.1256 27.8515 84.2427 30.0361 83.1584C32.2207 82.074 34.7386 81.8713 37.0685 82.5922L48.1856 86.6189" stroke="white" stroke-width="9.50086" stroke-linecap="round" stroke-linejoin="round"/>
</svg>
